<svg width="24" height="24" viewBox="0 0 24 24" fill="none" xmlns="http://www.w3.org/2000/svg">
<g clip-path="url(#clip0)">
<path d="M21.2625 11.6314C21.2625 11.6314 8.57133 11.6314 5.07421 11.6314L5.61395 11.2457C9.63238 8.92612 18.5262 3.34771 18.5262 3.34771C18.8942 3.13379 19.0212 2.66053 18.808 2.29127L18.0352 0.385722C17.8206 0.0158027 17.3474 -0.109259 16.9775 0.103346L2.35116 8.99326C1.98124 9.20784 1.85618 9.6811 2.06813 10.0517L3.46816 11.5689L3.48001 23.2279C3.48001 23.6564 3.82557 24 4.25407 24H21.2625C21.689 24 22.0352 23.6564 22.0352 23.2279V12.4048C22.0352 11.977 21.689 11.6314 21.2625 11.6314ZM15.6544 12.183L13.2671 14.5019H10.1741L12.4956 12.183H15.6544ZM14.6467 2.21886L17.3928 0.457468L16.9919 3.04164L14.184 4.84384L14.6467 2.21886ZM9.75481 5.22824L12.5476 3.48857L12.0474 6.10828L9.25917 7.84796L9.75481 5.22824ZM4.19088 11.0179L4.65888 8.39164L7.42932 6.62169L6.9587 9.24404L4.19088 11.0179ZM7.08244 12.183H10.1741L7.85519 14.5019H4.76288L7.08244 12.183ZM20.703 23.0594H4.79645V15.7104H20.703V23.0594ZM18.7296 14.5026H15.5866L17.9082 12.1836H20.9768L18.7296 14.5026Z" fill="#717171"/>
</g>
<defs>
<clipPath id="clip0">
<rect width="24" height="24" fill="white"/>
</clipPath>
</defs>
</svg>
