<svg width="24" height="24" viewBox="0 0 24 24" fill="none" xmlns="http://www.w3.org/2000/svg">
<mask id="mask0" mask-type="alpha" maskUnits="userSpaceOnUse" x="0" y="0" width="24" height="24">
<path d="M0 23.9971H23.9924V0.00756836H0V23.9971Z" fill="white"/>
</mask>
<g mask="url(#mask0)">
<path fill-rule="evenodd" clip-rule="evenodd" d="M11.9962 0.00756836C8.73824 0.00756836 8.32972 0.0213779 7.05019 0.0797588C5.77333 0.137997 4.90129 0.340806 4.13824 0.637378C3.34938 0.943902 2.68038 1.35409 2.01343 2.021C1.34652 2.68795 0.936333 3.35695 0.62981 4.14581C0.333238 4.90885 0.130429 5.7809 0.0721905 7.05776C0.0138095 8.33728 0 8.74581 0 12.0038C0 15.2618 0.0138095 15.6703 0.0721905 16.9498C0.130429 18.2267 0.333238 19.0987 0.62981 19.8618C0.936333 20.6506 1.34652 21.3196 2.01343 21.9866C2.68038 22.6535 3.34938 23.0637 4.13824 23.3702C4.90129 23.6668 5.77333 23.8696 7.05019 23.9278C8.32972 23.9862 8.73824 24 11.9962 24C15.2542 24 15.6627 23.9862 16.9422 23.9278C18.2191 23.8696 19.0911 23.6668 19.8542 23.3702C20.6431 23.0637 21.312 22.6535 21.979 21.9866C22.6459 21.3196 23.0561 20.6506 23.3627 19.8618C23.6592 19.0987 23.862 18.2267 23.9202 16.9498C23.9786 15.6703 23.9924 15.2618 23.9924 12.0038C23.9924 8.74581 23.9786 8.33728 23.9202 7.05776C23.862 5.7809 23.6592 4.90885 23.3627 4.14581C23.0561 3.35695 22.6459 2.68795 21.979 2.021C21.312 1.35409 20.6431 0.943902 19.8542 0.637378C19.0911 0.340806 18.2191 0.137997 16.9422 0.0797588C15.6627 0.0213779 15.2542 0.00756836 11.9962 0.00756836ZM11.9962 2.16904C15.1993 2.16904 15.5788 2.18128 16.8437 2.239C18.0133 2.29233 18.6485 2.48776 19.0712 2.65204C19.6312 2.86966 20.0308 3.12962 20.4506 3.54943C20.8704 3.96919 21.1303 4.36881 21.348 4.92876C21.5122 5.35147 21.7077 5.98666 21.761 7.15628C21.8187 8.42124 21.831 8.80066 21.831 12.0038C21.831 15.2069 21.8187 15.5863 21.761 16.8513C21.7077 18.0209 21.5122 18.6561 21.348 19.0788C21.1303 19.6388 20.8704 20.0384 20.4506 20.4581C20.0308 20.8779 19.6312 21.1379 19.0712 21.3555C18.6485 21.5198 18.0133 21.7152 16.8437 21.7686C15.579 21.8263 15.1996 21.8385 11.9962 21.8385C8.79286 21.8385 8.41352 21.8263 7.14872 21.7686C5.9791 21.7152 5.3439 21.5198 4.92119 21.3555C4.36124 21.1379 3.96162 20.8779 3.54186 20.4581C3.1221 20.0384 2.8621 19.6388 2.64448 19.0788C2.48019 18.6561 2.28476 18.0209 2.23143 16.8513C2.17371 15.5863 2.16148 15.2069 2.16148 12.0038C2.16148 8.80066 2.17371 8.42124 2.23143 7.15628C2.28476 5.98666 2.48019 5.35147 2.64448 4.92876C2.8621 4.36881 3.12205 3.96919 3.54186 3.54943C3.96162 3.12962 4.36124 2.86966 4.92119 2.65204C5.3439 2.48776 5.9791 2.29233 7.14872 2.239C8.41367 2.18128 8.7931 2.16904 11.9962 2.16904Z" fill="black"/>
</g>
<path fill-rule="evenodd" clip-rule="evenodd" d="M11.9962 16.0025C9.78776 16.0025 7.99748 14.2122 7.99748 12.0038C7.99748 9.79533 9.78776 8.00504 11.9962 8.00504C14.2047 8.00504 15.995 9.79533 15.995 12.0038C15.995 14.2122 14.2047 16.0025 11.9962 16.0025ZM11.9962 5.84357C8.594 5.84357 5.836 8.60157 5.836 12.0038C5.836 15.406 8.594 18.164 11.9962 18.164C15.3984 18.164 18.1564 15.406 18.1564 12.0038C18.1564 8.60157 15.3984 5.84357 11.9962 5.84357Z" fill="black"/>
<path fill-rule="evenodd" clip-rule="evenodd" d="M19.8394 5.60019C19.8394 6.39523 19.1949 7.03971 18.3998 7.03971C17.6048 7.03971 16.9603 6.39523 16.9603 5.60019C16.9603 4.80514 17.6048 4.16061 18.3998 4.16061C19.1949 4.16061 19.8394 4.80514 19.8394 5.60019Z" fill="black"/>
</svg>
