<svg width="24" height="24" viewBox="0 0 24 24" fill="none" xmlns="http://www.w3.org/2000/svg">
<g clip-path="url(#clip0_1503_11)">
<path d="M15.8555 18.6396L17.3348 20.6724C18.3496 20.6399 22.1784 19.8869 23.52 17.5306C23.52 12.5089 21.338 6.65987 20.3782 5.77335C18.3941 4.17888 15.1418 3.91602 15.1418 3.91602C15.1418 3.91602 14.8826 4.49359 14.814 5.21254" stroke="black" stroke-width="1.25" stroke-miterlimit="10" stroke-linecap="round" stroke-linejoin="round"/>
<path d="M9.18598 5.21254C9.11738 4.49359 8.85818 3.91602 8.85818 3.91602C8.85818 3.91602 5.60588 4.17888 3.62182 5.77335C2.66199 6.65987 0.48 12.5089 0.48 17.5306C1.82156 19.8869 5.65091 20.6399 6.66519 20.6724L8.14447 18.6396M15.4036 11.2469C14.9176 11.2469 14.4514 11.4676 14.1077 11.8604C13.764 12.2532 13.5709 12.786 13.5709 13.3415C13.5709 13.897 13.764 14.4297 14.1077 14.8225C14.4514 15.2153 14.9176 15.436 15.4036 15.436C15.8897 15.436 16.3559 15.2153 16.6996 14.8225C17.0433 14.4297 17.2364 13.897 17.2364 13.3415C17.2364 12.786 17.0433 12.2532 16.6996 11.8604C16.3559 11.4676 15.8897 11.2469 15.4036 11.2469V11.2469Z" stroke="black" stroke-width="1.25" stroke-miterlimit="10" stroke-linecap="round" stroke-linejoin="round"/>
<path d="M4.41408 16.8808C4.41408 16.8808 6.92753 19.1016 12 19.1016C17.0725 19.1016 19.5859 16.8808 19.5859 16.8808M18.834 6.7584C16.2624 5.16341 13.1112 4.96338 12 4.96338C10.8888 4.96338 7.7376 5.16341 5.16602 6.7584M8.59636 11.247C8.11029 11.247 7.64413 11.4677 7.30043 11.8605C6.95673 12.2533 6.76364 12.7861 6.76364 13.3416C6.76364 13.8971 6.95673 14.4298 7.30043 14.8226C7.64413 15.2154 8.11029 15.4361 8.59636 15.4361C9.08243 15.4361 9.5486 15.2154 9.8923 14.8226C10.236 14.4298 10.4291 13.8971 10.4291 13.3416C10.4291 12.7861 10.236 12.2533 9.8923 11.8605C9.5486 11.4677 9.08243 11.247 8.59636 11.247Z" stroke="black" stroke-width="1.25" stroke-miterlimit="10" stroke-linecap="round" stroke-linejoin="round"/>
</g>
<defs>
<clipPath id="clip0_1503_11">
<rect width="24" height="24" fill="white"/>
</clipPath>
</defs>
</svg>
